<svg width="132" height="166" xmlns="http://www.w3.org/2000/svg" xmlns:xlink="http://www.w3.org/1999/xlink" xml:space="preserve" overflow="hidden"><defs><linearGradient x1="32.7406" y1="41.9826" x2="70.0153" y2="79.2573" gradientUnits="userSpaceOnUse" spreadMethod="pad" id="fill0"><stop offset="0" stop-color="#0C1623" stop-opacity="1"/><stop offset="0.1" stop-color="#0C1623" stop-opacity="1"/><stop offset="0.72" stop-color="#2FB34E" stop-opacity="1"/><stop offset="1" stop-color="#2FB34E" stop-opacity="1"/></linearGradient></defs><g transform="translate(-802 -684)"><g><g><g><g><path d="M104.056 45.2185 37.5304 111.744 30.7524 107.916C29.5285 107.225 28.7754 105.907 28.7754 104.495L28.7754 47.572C28.7754 45.4068 30.5327 43.6495 32.6665 43.6495L100.918 43.6495C102.205 43.6495 103.334 44.2771 104.056 45.2185Z" fill="url(#fill0)" fill-rule="evenodd" transform="matrix(1.00111 0 0 1 803 684)"/><path d="M100.918 36.8087 32.6665 36.8087C32.541 36.8087 32.3841 36.8087 32.2586 36.8087 26.5161 37.0284 21.9346 41.7667 21.9346 47.572L21.9346 104.495C21.9346 108.386 24.0057 111.964 27.3947 113.878L61.5361 133.239C64.7996 135.091 68.8163 135.091 72.0798 133.239L106.221 113.878C109.579 111.964 111.681 108.386 111.681 104.495L111.681 47.572C111.65 41.6412 106.849 36.8087 100.918 36.8087ZM104.84 104.495C104.84 104.589 104.84 104.684 104.84 104.778 104.746 106.064 103.993 107.257 102.864 107.884L95.6775 111.964 68.7221 127.277C67.5297 127.967 66.0862 127.967 64.8938 127.277L45.6265 116.357 43.8064 115.321 30.7524 107.916C29.5285 107.225 28.7754 105.907 28.7754 104.495L28.7754 47.572C28.7754 45.4068 30.5327 43.6495 32.6665 43.6495L100.918 43.6495C103.083 43.6495 104.809 45.4068 104.809 47.572L104.809 104.495Z" fill="#B3B1B3" fill-rule="nonzero" fill-opacity="1" transform="matrix(1.00111 0 0 1 803 684)"/><path d="M110.865 148.71 22.8132 148.71C22.3425 148.71 21.9346 148.302 21.9346 147.831L21.9346 131.168C21.9346 130.698 22.3425 130.29 22.8132 130.29L110.897 130.29C111.367 130.29 111.775 130.698 111.775 131.168L111.775 147.831C111.744 148.333 111.367 148.71 110.865 148.71Z" fill="#E1E0E1" fill-rule="nonzero" fill-opacity="1" transform="matrix(1.00111 0 0 1 803 684)"/></g></g></g></g></g></svg>