<svg width="54" height="12" xmlns="http://www.w3.org/2000/svg" xmlns:xlink="http://www.w3.org/1999/xlink" xml:space="preserve" overflow="hidden"><defs><clipPath id="clip0"><rect x="253" y="700" width="53" height="11"/></clipPath><clipPath id="clip1"><rect x="253" y="700" width="53" height="11"/></clipPath><clipPath id="clip2"><rect x="253" y="700" width="53" height="11"/></clipPath></defs><g transform="translate(-252 -700)"><g><g clip-path="url(#clip0)"><g clip-path="url(#clip1)"><g clip-path="url(#clip2)"><path d="M5.37076 5.34005 0.0667506 10.6801 11.7481 10.6801 11.7481 0 0.0667506 0ZM10.6801 9.61209 2.53652 9.61209 6.90602 5.31335 2.65401 1.06801 10.6801 1.06801 10.6801 9.61209ZM17.4126 7.05821C17.2724 6.60297 17.0334 6.00756 15.7531 2.26952L14.6851 2.26952 16.8212 8.27708 17.9613 8.27708 20.1587 2.26952 19.0907 2.26952C17.7677 6.00756 17.5354 6.63768 17.4126 7.05821ZM20.8262 3.87154 21.7607 3.87154 21.7607 8.27708 20.8262 8.27708ZM23.8967 4.40554 23.8967 3.87154 22.9622 3.87154 22.9622 8.27708 23.8967 8.27708 23.8967 5.07305C24.238 4.80126 24.662 4.6543 25.0982 4.65652 25.2764 4.6488 25.4549 4.65415 25.6322 4.67254L25.6322 3.73804 25.2317 3.73804C24.6363 3.73804 24.2478 4.00504 23.8967 4.40554ZM29.2368 7.07557C28.863 7.32121 28.4358 7.60957 27.9018 7.60957 27.5507 7.60957 27.2343 7.44537 27.2343 7.20907L27.2343 3.87154 26.2997 3.87154 26.2997 7.47607C26.2997 8.03277 26.9339 8.41058 27.6348 8.41058 28.2836 8.41058 28.6681 8.22101 29.2087 7.86055L29.2087 8.27708 30.1713 8.27708 30.1713 3.87154 29.2368 3.87154 29.2368 7.07557ZM33.3473 5.7766 32.6798 5.58302C32.2058 5.44285 32.075 5.33738 32.075 5.07438 32.075 4.81139 32.2419 4.52169 32.82 4.52169 33.3019 4.52169 33.8012 4.68322 34.175 4.80605L34.175 4.00504C33.8012 3.90892 33.3473 3.75005 32.9521 3.75005 31.6465 3.75005 31.1338 4.40821 31.1338 5.11977 31.1338 5.83134 31.4649 6.13705 32.1484 6.34798L32.8159 6.54957C33.3326 6.7071 33.4287 6.84728 33.4287 7.09292 33.4287 7.37327 33.2044 7.68033 32.609 7.68033 32.0903 7.67043 31.5789 7.55553 31.1058 7.34257L31.1058 8.14358C31.5807 8.29611 32.0756 8.3771 32.5743 8.38388 33.9414 8.38388 34.422 7.68834 34.422 7.01282 34.4193 6.38136 34.163 6.00756 33.3473 5.7766ZM39.5097 2.26952 35.2443 2.26952 35.2443 3.20403 36.8463 3.20403 36.8463 8.27708 37.9144 8.27708 37.9144 3.20403 39.5097 3.20403 39.5097 2.26952ZM46.0579 7.60957C45.839 7.60957 45.612 7.58955 45.5239 7.47607 45.4358 7.36259 45.3904 7.36927 45.3904 6.67506L45.3904 4.67254 46.7254 4.67254 46.7254 3.87154 45.3904 3.87154 45.3904 2.80353 44.4559 2.80353 44.4559 3.87154 43.6549 3.87154 43.6549 4.67254 44.4559 4.67254 44.4559 6.80856C44.4559 7.42267 44.548 7.74307 44.7229 7.97803 44.9543 8.24454 45.2941 8.39181 45.6468 8.37854 46.1047 8.37854 46.1514 8.35451 46.7241 8.27174L46.7241 7.47607C46.1567 7.58421 46.3249 7.60957 46.0579 7.60957ZM52.0655 2.26952 53 2.26952 53 8.27708 52.0655 8.27708ZM20.8289 3.17733 21.7607 3.20403 21.7607 2.26952 20.8289 2.26952 20.8289 3.17733ZM49.4902 3.75005C48.819 3.77311 48.1559 3.90429 47.5264 4.13854L47.5264 4.93955C48.1139 4.74597 48.8147 4.5831 49.2353 4.5831 49.569 4.5831 49.7693 4.65385 49.8881 4.81139 50.0011 4.96455 50.0623 5.14972 50.063 5.34005L50.063 5.60705C49.406 5.62975 48.7538 5.72785 48.1192 5.89942 47.5852 6.04894 47.3022 6.39338 47.3022 7.00748 47.3022 7.67499 47.7387 8.39055 48.7039 8.39055 49.2318 8.39266 49.732 8.15437 50.063 7.74307L50.063 8.27708 50.9975 8.27708 50.9855 5.50426C50.9855 5.03033 50.9601 4.62448 50.864 4.40554 50.6277 3.87955 50.1217 3.75005 49.4902 3.75005ZM50.063 7.20907C49.7773 7.49947 49.3902 7.66789 48.9829 7.67899 48.4129 7.67899 48.2113 7.32788 48.2113 7.01149 48.2221 6.71461 48.4363 6.46442 48.728 6.40806 49.1667 6.31462 49.6144 6.26985 50.063 6.27456L50.063 7.20907ZM41.2172 3.75005C40.6138 3.75005 40.1372 3.85552 39.77 4.11584 39.2173 4.50834 38.9356 5.18385 38.9356 6.1464 38.9356 7.0502 39.232 7.69101 39.77 8.05146 40.1565 8.28763 40.6044 8.40379 41.057 8.38521 42.5255 8.38521 43.2851 7.55217 43.2851 5.95282 43.2851 4.50967 42.6136 3.75005 41.2172 3.75005ZM41.101 7.64028C40.4122 7.64028 39.9436 7.34791 39.9436 5.9862 39.9436 5.03967 40.3334 4.49632 41.1638 4.49632 42.0743 4.49632 42.2678 5.06637 42.2678 6.10902 42.2692 7.3132 41.8086 7.64028 41.1024 7.64028Z" fill="#3B61FF" fill-rule="nonzero" fill-opacity="1" transform="matrix(1 0 0 1.02995 253 700)"/></g></g></g></g></g></svg>